<?xml version="1.0" encoding="utf-8"?>
<!-- Generator: Adobe Illustrator 28.1.0, SVG Export Plug-In . SVG Version: 6.00 Build 0)  -->
<svg version="1.1" id="Capa_1" xmlns="http://www.w3.org/2000/svg" xmlns:xlink="http://www.w3.org/1999/xlink" x="0px" y="0px"
	 viewBox="0 0 297.5 297.5" style="enable-background:new 0 0 297.5 297.5;" xml:space="preserve">
<style type="text/css">
	.st0{fill:#FFFFFF;}
	.st1{fill:#003A79;}
	.st2{fill-rule:evenodd;clip-rule:evenodd;fill:#FFFFFF;}
</style>
<g>
	<path class="st0" d="M277.2,0H20.3C9.1,0,0,9.1,0,20.3v256.9c0,11.2,9.1,20.3,20.3,20.3h256.9c11.2,0,20.3-9.1,20.3-20.3V20.3
		C297.5,9.1,288.4,0,277.2,0z M290.5,277.2c0,7.3-6,13.3-13.3,13.3H20.3c-7.3,0-13.3-6-13.3-13.3V20.3C7,13,13,7,20.3,7h256.9
		c7.3,0,13.3,6,13.3,13.3V277.2z"/>
	<path class="st1" d="M290.5,277.2c0,7.3-6,13.3-13.3,13.3H20.3c-7.3,0-13.3-6-13.3-13.3V20.3C7,13,13,7,20.3,7h256.9
		c7.3,0,13.3,6,13.3,13.3V277.2z"/>
	<g>
		<path class="st0" d="M183,244.1c6.4-2.4,9.6-7.1,9.6-14.4c0-0.4,0-0.8-0.1-1.2c-0.6-9.6-8.1-14.3-17.2-14.3h-24.7v48.9h11.6v-17.6
			h8.3l9,17.6h13.1L183,244.1z M173.5,237.2h-11.3v-14.4h11.3c4.4,0,7.2,2.1,7.2,7.1C180.7,234.8,178.2,237.2,173.5,237.2z"/>
		<path class="st0" d="M88.8,214.2H75.6l-8.1,21.4l-9.1-15.9c-1.7-3-6-5.5-9.5-5.5h-6.6l20,35.2L57,263.1h6.9c3.5,0,7.3-2.7,8.6-5.9
			L88.8,214.2z"/>
		<path class="st0" d="M123.7,241.8h-16.6l7-18.4c0.7-2,1.9-2,2.7,0L123.7,241.8z M126.9,250L126.9,250l5,13.1h12.4l-16.3-43
			c-1.2-3.3-5.1-5.9-8.6-5.9h-14.2l-18.5,48.9h6.2c3.4,0,7.2-2.7,8.5-5.9l2.7-7.2H126.9"/>
		<path class="st0" d="M223.9,223.4c0.7-2,2-2,2.7,0l7,18.4h-16.6L223.9,223.4z M213.8,250h22.8l2.7,7.2c1.2,3.3,5,5.9,8.5,5.9h6.2
			l-18.5-48.9h-14.2c-3.5,0-7.3,2.7-8.6,5.9l-16.3,43h12.4L213.8,250L213.8,250"/>
	</g>
	<path class="st2" d="M78.5,76c0-29.1,19.3-47.6,19.3-47.6c0.5-0.4,2-0.3,3.3-0.3c5.5,0,15.7,0,21.5,0C111.8,37.5,105,61.4,105,76
		c0,14.5,6.8,38.4,17.6,47.9c-5.9,0-16.1,0-21.5,0c-1.2,0-2.8,0.1-3.3-0.3C97.8,123.6,78.5,105.1,78.5,76z M190.4,123.6
		c0.5,0.4,2,0.3,3.4,0.3c5.4,0,15.6,0,21.5,0c-10.9-9.5-17.7-33.4-17.7-47.9c0-14.5,6.8-38.4,17.7-47.9c-5.9,0-16.1,0-21.5,0
		c-1.3,0-2.8-0.1-3.4,0.3c0,0-19.2,18.4-19.2,47.6C171.1,105.1,190.4,123.6,190.4,123.6z M144.1,123.6c0.5,0.4,2,0.3,3.4,0.3
		c5.4,0,15.5,0,21.5,0c-10.9-9.5-17.7-33.4-17.7-47.9c0-14.5,6.8-38.4,17.7-47.9c-5.9,0-16.1,0-21.5,0c-1.3,0-2.8-0.1-3.4,0.3
		c0,0-19.2,18.8-19.2,47.6C124.9,104.8,144.1,123.6,144.1,123.6z M249.4,161.7c-3.3-6.7-9-18.1-10.1-22c0,0-3.4-8.8,5.8-10.2
		c3.9-0.6,6.5-3.4,6.7-7.2l0-4.3c0-0.6-0.5-1.1-1.1-1.2l-15.3,0c-0.3,0-10.8,1.2-10.9,13.9c-0.3,21.8,0.1,24.7-5.7,25.7
		c-0.5-0.1-0.9-0.5-0.9-1l0,0c0-0.2,0-0.4,0-0.7c0-11.6-9.4-21-21-21c-5.9,0-11.2,2.4-15,6.4h0c-0.2,0.2-0.5,0.6-1,0.6
		s-0.8-0.3-1-0.6h0c-3.8-3.9-9.1-6.4-15-6.4s-11.2,2.4-15,6.4h0c-0.2,0.2-0.5,0.6-1,0.6c-0.4,0-0.8-0.3-1-0.6h0
		c-3.8-3.9-9.1-6.4-15-6.4c-5.9,0-11.2,2.4-15,6.4h0c-0.2,0.2-0.5,0.6-1,0.6c-0.4,0-0.8-0.3-1-0.6h0c-3.8-3.9-9.1-6.4-15-6.4
		c-11.6,0-21,9.4-21,21c0,0.2,0,0.4,0,0.6c0,0,0,0,0,0c0,0.6-0.5,1-1.1,1c-5.9-1-5.5-3.8-5.8-25.7c-0.1-12.8-10.6-13.9-10.9-13.9
		l-15.3,0c-0.6,0.1-1.1,0.5-1.1,1.2l0,4.3c0.2,3.7,2.8,6.6,6.7,7.2c9.3,1.4,5.8,10.2,5.8,10.2c-1.1,3.9-6.8,15.3-10.1,22
		c-2.1,4.4-6.4,15.1,0.3,25.4c3.9,6,8.5,11.6,24.8,11.3h151c16.4,0.3,20.9-5.3,24.8-11.3l0,0C255.7,176.8,251.5,166.1,249.4,161.7z
		 M100.9,142.3c-7,0-12.6,5.6-12.6,12.6c0,7,5.6,12.6,12.6,12.6c7,0,12.6-5.6,12.6-12.6C113.5,147.9,107.8,142.3,100.9,142.3z
		 M196.9,142.3c-7,0-12.6,5.6-12.6,12.6c0,7,5.6,12.6,12.6,12.6c7,0,12.6-5.6,12.6-12.6C209.5,147.9,203.8,142.3,196.9,142.3z
		 M132.9,142.3c-7,0-12.6,5.6-12.6,12.6c0,7,5.6,12.6,12.6,12.6c7,0,12.6-5.6,12.6-12.6C145.5,147.9,139.8,142.3,132.9,142.3z
		 M164.9,142.3c-7,0-12.6,5.6-12.6,12.6c0,7,5.6,12.6,12.6,12.6c7,0,12.6-5.6,12.6-12.6C177.5,147.9,171.8,142.3,164.9,142.3z"/>
</g>
</svg>
