<?xml version="1.0" encoding="utf-8"?>
<!-- Generator: Adobe Illustrator 28.1.0, SVG Export Plug-In . SVG Version: 6.00 Build 0)  -->
<svg version="1.1" id="Capa_1" xmlns="http://www.w3.org/2000/svg" xmlns:xlink="http://www.w3.org/1999/xlink" x="0px" y="0px"
	 viewBox="0 0 500 500" style="enable-background:new 0 0 500 500;" xml:space="preserve">
<style type="text/css">
	.st0{fill:#FFFFFF;}
</style>
<g>
	<path class="st0" d="M52,263.7c0,0.5-0.5,0.6-0.6,0.6h-9.3c-0.5,0-1-0.3-1.1-0.5L28.4,247h-2.6v16.2c0,0.5-0.5,0.6-1,0.6h-7.2
		c-0.5,0-1-0.3-1-0.6v-39c0-0.5,0.5-0.6,1-0.6h7.4c0.5,0,1,0.3,1,0.6v16.1h2.6l12-16.5c0.3-0.3,0.5-0.5,1-0.5l0,0h8.8
		c0.3,0,0.6,0.5,0.6,0.6c0,0.3,0,0.3-0.3,0.5L36.1,243l15.6,19.6C52,263.5,52,263.7,52,263.7z"/>
	<path class="st0" d="M80.5,264.7h-6.7c-0.6,0-1-0.3-1-0.6v-19.1c0-3.1-1.1-4-3.7-4s-5.6,0.6-5.6,0.6v22.6c0,0.5-0.3,0.6-1,0.6h-6.7
		c-0.6,0-1-0.3-1-0.6v-24.2c0-2.1,1.4-2.7,4.7-3.5c2.7-0.6,7.2-1.4,10.4-1.4c6.9,0,11.2,1.6,11.2,8.7v20.2
		C81.4,264.5,80.9,264.7,80.5,264.7z"/>
	<path class="st0" d="M99.7,265.5c-12.5,0-14-6.7-14-15.1c0-8.7,1.6-15.4,14-15.4s14,6.7,14,15.4C114,258.6,112.4,265.5,99.7,265.5z
		 M99.7,240.4c-5.1,0-5.3,3.1-5.3,9.5c0,6.4,0.3,9.5,5.3,9.5c5.1,0,5.3-3.1,5.3-9.5C105.2,243.5,104.9,240.4,99.7,240.4z"/>
	<path class="st0" d="M157.7,263.7c0,0.5-0.5,1-1,1H145c-0.6,0-1-0.5-1.1-1l-3.7-20.6l0,0l-4,20.6c0,0.5-0.5,1-1,1h-11.7
		c-0.6,0-1-0.5-1-1l-5.8-26.8v-0.3c0-0.6,0.3-1.1,1-1.1h6.3c0.6,0,1.1,0.3,1.4,1l3.7,22.8h1.4l3.5-21.4c0-0.6,0.5-1,1.1-1h10.4
		c0.6,0,1,0.3,1.1,1l3.7,21.4h1.4l3.5-22.8c0-0.6,0.6-1,1.1-1h6.1c0.6,0,1.1,0.5,1.1,1.1v0.3L157.7,263.7z"/>
	<path class="st0" d="M181.8,263.5c0,0.6-0.5,0.6-0.6,0.6c-0.5,0.3-2.1,0.6-5.3,0.6c-5.6,0-8.3-3.2-8.3-7.7V225c0-0.6,0.3-1.1,1-1.1
		l6.3-1.1h0.3c0.6,0,1,0.3,1,1v32.6c0,1.9,1.1,2.6,2.1,2.6c1,0,1.4,0,1.9-0.3c0,0,0,0,0.3,0c0.5,0,0.6,0.3,0.6,0.6l0.6,3.7
		L181.8,263.5L181.8,263.5z"/>
	<path class="st0" d="M210.8,252.3c0,0.6-0.3,1.4-1.4,1.4h-18c0,2.2,0.6,3.7,2.2,4.7c1.4,0.6,3.2,1.1,6.1,1.1c3.5,0,6.3-1,7.7-1.4
		c0,0,0,0,0.3,0c0.5,0,0.6,0.3,1,1l0.6,3.1c0,0.3,0,0.3,0,0.3c0,0.5-0.3,0.6-0.6,1c-1.9,0.6-5.6,1.9-10.3,1.9
		c-10.8,0-15.4-4-15.4-15.1c0-10.8,3.2-15.4,14-15.4c5.6,0,8.8,1.4,10.9,3.7c2.1,2.6,2.7,6.3,2.7,10.9
		C210.8,250.2,210.8,251.5,210.8,252.3z M202.5,248.1c0-1.4,0-2.7-0.3-4c-0.6-2.7-2.1-3.7-4.8-3.7c-3.5,0-4.8,1.1-5.3,3.5
		c-0.3,1.4-0.3,2.7-0.3,4.3h10.9L202.5,248.1L202.5,248.1z"/>
	<path class="st0" d="M238.8,264c-2.7,0.6-6.1,1.4-9.5,1.4c-10.9,0-14.6-3.5-14.6-14.9c0-9.5,2.2-15.4,11.9-15.4c4,0,6.9,1,7.4,1
		l-0.6-3.5v-6.9c0-0.6,0.3-1.1,1.1-1.4l6.3-1.1h0.3c0.6,0,1,0.3,1,1v35.8C242.1,261.1,242,263.1,238.8,264z M233.6,241.2
		c0,0-2.2-0.5-4.3-0.5c-4.2,0-5.6,0.6-5.6,9.3c0,8.8,1.6,9.8,6.1,9.8c2.1,0,4.2-0.6,4.2-0.6v-18L233.6,241.2L233.6,241.2z"/>
	<path class="st0" d="M277.1,239.8c0,0.3,0,0.5-0.5,0.6c-1.1,0.6-2.6,1.1-4,1.1c-1,0-1.1,0-2.2-0.3c1,0.6,2.2,2.2,2.2,4.8
		c0,6.7-5.3,9.2-11.9,9.2h-3.2c-1.9,0-2.6,1-2.6,2.2c0,1.9,1.4,2.1,4.2,2.1h5.3c4.8,0,10.3,1.1,10.3,7.7c0,6.9-6.1,9.8-14.4,9.8
		c-9.5,0-14.4-1.6-14.4-6.9c0-5.1,4.2-5.3,6.1-5.8v-1c-2.6-0.6-5.1-0.5-5.1-4.8c0-3.7,2.7-4.2,6.3-4.8c-1.9-0.5-6.3-1.6-6.3-8.3
		c0-7.9,4.8-10.4,13-10.4c3.5,0,4.8,0.5,7.2,1.1c0.6,0.3,1.4,0.3,2.1,0.3s1.9,0,2.7-0.3c1-0.3,2.1-0.6,2.7-1.1
		c0.3,0,0.5-0.3,0.5-0.3c0.3,0,0.5,0.3,0.6,0.6L277.1,239.8C276.8,239.5,277.1,239.8,277.1,239.8z M261.7,265.6H258
		c-1.9,0-4.2,0.3-4.2,3.1s2.2,3.5,6.3,3.5c3.5,0,6.1-0.6,6.1-3.7C266.4,265.8,264.3,265.6,261.7,265.6z M260,239.5
		c-4,0-4.8,1.9-4.8,5.6s1.1,5.6,4.8,5.6s4.8-1.9,4.8-5.6S263.6,239.5,260,239.5z"/>
	<path class="st0" d="M306,252.3c0,0.6-0.3,1.4-1.4,1.4h-18c0,2.2,0.6,3.7,2.2,4.7c1.4,0.6,3.2,1.1,6.1,1.1c3.5,0,6.3-1,7.7-1.4
		c0,0,0,0,0.3,0c0.5,0,0.6,0.3,1,1l0.6,3.1c0,0.3,0,0.3,0,0.3c0,0.5-0.3,0.6-0.6,1c-1.9,0.6-5.6,1.9-10.3,1.9
		c-10.8,0-15.4-4-15.4-15.1c0-10.8,3.2-15.4,14-15.4c5.6,0,8.8,1.4,10.9,3.7c2.1,2.6,2.7,6.3,2.7,10.9
		C306,250.2,306,251.5,306,252.3z M297.5,248.1c0-1.4,0-2.7-0.3-4c-0.6-2.7-2.1-3.7-4.8-3.7c-3.5,0-4.8,1.1-5.3,3.5
		c-0.3,1.4-0.3,2.7-0.3,4.3h10.9L297.5,248.1L297.5,248.1z"/>
	<path class="st0" d="M359.2,239.8c0,0.3,0,0.5-0.5,0.6c-1.1,0.6-2.6,1.1-4,1.1c-1,0-1.1,0-2.2-0.3c1,0.6,2.2,2.2,2.2,4.8
		c0,6.7-5.3,9.2-11.9,9.2h-3.2c-1.9,0-2.6,1-2.6,2.2c0,1.9,1.4,2.1,4.2,2.1h5.3c4.8,0,10.3,1.1,10.3,7.7c0,6.9-6.1,9.8-14.4,9.8
		c-9.5,0-14.4-1.6-14.4-6.9c0-5.1,4.2-5.3,6.1-5.8v-1c-2.6-0.6-5.1-0.5-5.1-4.8c0-3.7,2.7-4.2,6.3-4.8c-1.9-0.5-6.3-1.6-6.3-8.3
		c0-7.9,4.8-10.4,13-10.4c3.5,0,4.8,0.5,7.2,1.1c0.6,0.3,1.4,0.3,2.1,0.3s1.9,0,2.7-0.3c1-0.3,2.1-0.6,2.7-1.1
		c0.3,0,0.5-0.3,0.5-0.3c0.3,0,0.5,0.3,0.6,0.6L359.2,239.8C359.2,239.5,359.2,239.8,359.2,239.8z M344.1,265.6h-3.7
		c-1.9,0-4.2,0.3-4.2,3.1s2.2,3.5,6.3,3.5c3.5,0,6.1-0.6,6.1-3.7C348.6,265.8,346.7,265.6,344.1,265.6z M342,239.5
		c-4,0-4.8,1.9-4.8,5.6s1.1,5.6,4.8,5.6s4.8-1.9,4.8-5.6S346,239.5,342,239.5z"/>
	<path class="st0" d="M377.6,241.2c-3.2,0-6.1,0.5-6.9,0.6v21.8c0,0.5-0.3,0.6-1,0.6H363c-0.5,0-1-0.3-1-0.6v-24.2
		c0-1.6,0.6-2.1,2.6-2.7c1.6-0.6,4.2-1,6.7-1.4c1.6-0.3,3.5-0.5,5.3-0.6h0.5c0.6,0,0.6,0,1.1,0.3c0.3,0,0.5,0.5,0.5,1v4
		C378.6,240.7,378.6,241.2,377.6,241.2z"/>
	<path class="st0" d="M394.7,265.5c-12.5,0-14-6.7-14-15.1c0-8.7,1.6-15.4,14-15.4c12.4,0,14,6.7,14,15.4
		C408.8,258.6,407.2,265.5,394.7,265.5z M394.7,240.4c-5.1,0-5.3,3.1-5.3,9.5c0,6.4,0.3,9.5,5.3,9.5c5.1,0,5.3-3.1,5.3-9.5
		C400,243.5,399.8,240.4,394.7,240.4z"/>
	<path class="st0" d="M452.6,263.7c0,0.5-0.5,1-1,1h-11.7c-0.6,0-1-0.5-1.1-1l-3.7-20.6l0,0l-4,20.6c0,0.5-0.5,1-1,1h-11.6
		c-0.6,0-1-0.5-1-1l-5.8-26.8v-0.3c0-0.6,0.3-1.1,1-1.1h6.3c0.6,0,1.1,0.3,1.4,1l3.7,22.8h1.4l3.5-21.4c0-0.6,0.5-1,1.1-1h10.4
		c0.6,0,1,0.3,1.1,1l3.7,21.4h1.4l3.2-22.8c0-0.6,0.6-1,1.1-1h6.1c0.6,0,1.1,0.5,1.1,1.1v0.3L452.6,263.7z"/>
	<path class="st0" d="M471.9,265.1c-4.8,0-9.3-1.1-10.3-1.6c-0.3,0-0.6-0.3-0.6-0.6v-0.3l0.6-3.5c0-0.5,0.3-0.6,0.6-0.6h0.3
		c0.6,0.3,4.7,1.4,8.2,1.4c2.6,0,4.7-0.6,4.7-3.2c0-2.7-1.6-2.7-4.7-3.5c-3.7-0.6-9.5-1.4-9.5-9.2c0-8.2,7.2-9.2,11.9-9.2
		c4.3,0,7.9,1,9.2,1.4c0.5,0,0.6,0.5,0.6,0.6v0.3l-0.6,3.7c0,0.5-0.5,0.6-0.6,0.6c0,0,0,0-0.3,0c-0.6,0-4-0.6-6.7-0.6
		c-2.1,0-4.8,0.5-4.8,2.7c0,2.7,2.7,3.1,5.6,3.5c4.2,0.6,8.7,1.9,8.7,8.8C483.9,263.1,478.6,265.1,471.9,265.1z"/>
</g>
</svg>
